<svg id="Group_22414" data-name="Group 22414" xmlns="http://www.w3.org/2000/svg" width="38.227" height="45.488" viewBox="0 0 38.227 45.488">
  <path id="Path_204" data-name="Path 204" d="M-109.481,784.607c-.553.454-1.113.9-1.7,1.309-.644.461-1.309.9-1.988,1.3.546.49,1.113.965,1.694,1.42q.965.765,1.994,1.448,1.029-.693,1.995-1.448c.573-.455,1.14-.93,1.686-1.42-.678-.405-1.344-.84-1.98-1.3-.588-.413-1.154-.855-1.7-1.309" transform="translate(128.597 -744.598)" fill="#185e96"/>
  <path id="Path_205" data-name="Path 205" d="M-92.119,749.159l-5.157,6.7c.079.982.118,1.98.118,2.982a36.337,36.337,0,0,1-5.215,18.822c-.481.805-.991,1.584-1.528,2.343a37.571,37.571,0,0,1-4.158,4.892l.305.249c.723.594,1.473,1.149,2.252,1.677.852.583,1.722,1.121,2.63,1.621a41.741,41.741,0,0,0,4.279-5.261c.538-.769,1.047-1.566,1.528-2.371a42.688,42.688,0,0,0,6.049-21.971,42.8,42.8,0,0,0-1.1-9.68" transform="translate(129.243 -749.076)" fill="#185e96"/>
  <path id="Path_206" data-name="Path 206" d="M-110.665,784.133c.713-.592,1.408-1.213,2.065-1.861a33.734,33.734,0,0,0,4.1-4.845c.546-.778,1.056-1.575,1.528-2.4a33.585,33.585,0,0,0,4.557-16.941c0-1-.046-2-.139-2.982h-20.109c-.093.982-.14,1.982-.14,2.982a33.585,33.585,0,0,0,4.557,16.941,23.776,23.776,0,0,0,4.067-5.362,26.574,26.574,0,0,1-2.509-9.115h8.158a26.6,26.6,0,0,1-2.508,9.115,26.326,26.326,0,0,1-1.567,2.8,26.175,26.175,0,0,1-4.111,4.965,23.082,23.082,0,0,1-2.122,1.816c-.1.083-.195.158-.3.232a24.729,24.729,0,0,1-2.316,1.546,24.71,24.71,0,0,1-2.7,1.408,41.833,41.833,0,0,0,4.279,5.261c.908-.5,1.789-1.037,2.64-1.621.769-.528,1.519-1.084,2.241-1.677.112-.083.213-.166.315-.259" transform="translate(127.717 -748.325)" fill="#185e96"/>
  <path id="Path_207" data-name="Path 207" d="M-115.808,777.9c.1-.074.2-.158.305-.232a36.337,36.337,0,0,1-5.224-18.822c0-1,.043-2,.119-2.981l-5.139-6.78a42.831,42.831,0,0,0-1.121,9.762,42.684,42.684,0,0,0,6.048,21.971,21.488,21.488,0,0,0,2.7-1.362,21.986,21.986,0,0,0,2.316-1.555" transform="translate(126.867 -749.085)" fill="#185e96"/>
</svg>
